<svg xmlns="http://www.w3.org/2000/svg" width="17" height="17" fill="none" viewBox="0 0 17 17"><path fill="#000" fill-rule="evenodd" d="M15.6273 9.08075C15.6273 5.49069 12.6708 2.53417 9.08075 2.53417C5.49069 2.53417 2.53417 5.49069 2.53417 9.08075C2.53417 12.6708 5.49069 15.6273 9.08075 15.6273C12.6708 15.6273 15.6273 12.6708 15.6273 9.08075ZM1.1615 9.08075C1.1615 4.75156 4.75156 1.1615 9.08075 1.1615C13.5155 1.1615 17 4.75156 17 9.08075C17 13.4099 13.4099 17 9.08075 17C4.75156 17 1.1615 13.4099 1.1615 9.08075ZM13.3043 9.08075C13.3043 8.76398 12.9876 8.44721 12.6708 8.44721H5.49069C5.17392 8.44721 4.85715 8.76398 4.85715 9.08075C4.85715 9.39752 5.17392 9.71429 5.49069 9.71429H12.6708C12.9876 9.71429 13.3043 9.39752 13.3043 9.08075Z" clip-rule="evenodd"/></svg>