<svg xmlns="http://www.w3.org/2000/svg" width="32" height="32" fill="none" viewBox="0 0 32 32"><path fill="#000" d="M26.5 2C28.7084 2 30.5 3.79157 30.5 6V28C30.5 30.2084 28.7084 32 26.5 32H11.5C9.29157 32 7.5 30.2084 7.5 28V23.5H10.5V28C10.5 28.5516 10.9484 29 11.5 29H26.5C27.0516 29 27.5 28.5516 27.5 28V6C27.5 5.44843 27.0516 5 26.5 5H11.5C10.9484 5 10.5 5.44843 10.5 6V10.5H7.5V6C7.5 3.79157 9.29157 2 11.5 2H26.5Z"/><path fill="#000" d="M14.0293 11.9434C14.0298 11.1038 15.0448 10.6835 15.6387 11.2773L20.6934 16.334C21.0614 16.702 21.0614 17.298 20.6934 17.666L15.6387 22.7227C15.0468 23.3165 14.0298 22.8962 14.0293 22.0566V18.5H0.0292969V15.5H14.0293V11.9434Z"/></svg>