<svg width="32" height="32" viewBox="0 0 32 32" fill="none" xmlns="http://www.w3.org/2000/svg">
<path fill-rule="evenodd" clip-rule="evenodd" d="M16 4C22.986 4 29.35 8.488 32 15.19V16.81C29.35 23.512 22.986 28 16 28C9.014 28 2.65 23.512 0 16.808V15.19C2.65 8.488 9.014 4 16 4ZM2.34 16C4.662 21.788 9.974 25.5 16 25.5C22.026 25.5 27.338 21.788 29.66 16C27.338 10.212 22.026 6.5 16 6.5C9.974 6.5 4.662 10.212 2.34 16ZM10 16C10 19.308 12.692 22 16 22C19.308 22 22 19.308 22 16C22 12.692 19.308 10 16 10C12.692 10 10 12.692 10 16ZM12.5 16C12.5 14.07 14.07 12.5 16 12.5C17.93 12.5 19.5 14.07 19.5 16C19.5 17.93 17.93 19.5 16 19.5C14.07 19.5 12.5 17.93 12.5 16Z" fill="black"/>
</svg>