<svg xmlns="http://www.w3.org/2000/svg" width="16" height="16" fill="none" viewBox="0 0 16 16"><path fill="#000" d="M8.99986 5.52803C8.99986 5.94803 9.50785 6.15802 9.80385 5.86103L12.3318 3.33307C12.5158 3.14907 12.5158 2.85107 12.3318 2.66708L9.80485 0.139115C9.50786 -0.15788 8.99986 0.0521166 8.99986 0.47211V2.33768C8.67527 2.28006 8.34117 2.24997 7.99988 2.24997C4.82893 2.24997 2.24997 4.82893 2.24997 7.99988C2.24997 8.94186 2.48196 9.82985 2.88496 10.6148L4.02794 9.47186C3.85694 9.01186 3.74994 8.51987 3.74994 7.99988C3.74994 5.65591 5.65591 3.74994 7.99988 3.74994C8.345 3.74994 8.6797 3.79242 8.99986 3.872V5.52803Z"/><path fill="#000" d="M6.99989 10.472V12.1276C7.31991 12.2072 7.65454 12.2499 7.99989 12.2499C10.3439 12.2499 12.2498 10.3439 12.2498 7.99994C12.2498 7.47994 12.1428 6.98695 11.9708 6.52596L13.1138 5.38297C13.5178 6.16896 13.7498 7.05695 13.7498 7.99994C13.7498 11.1709 11.1708 13.7498 7.99989 13.7498C7.65866 13.7498 7.32453 13.7198 6.99989 13.6623V15.5279C6.99989 15.9479 6.4919 16.1579 6.1959 15.8609L3.66794 13.3329C3.48395 13.1489 3.48395 12.8509 3.66794 12.6669L6.1959 10.139C6.4919 9.84197 6.99989 10.052 6.99989 10.472Z"/></svg>